<?xml version="1.0" encoding="UTF-8"?>
<svg width="37px" height="51px" viewBox="0 0 37 51" version="1.1" xmlns="http://www.w3.org/2000/svg" xmlns:xlink="http://www.w3.org/1999/xlink">
    <!-- Generator: Sketch 43.1 (39012) - http://www.bohemiancoding.com/sketch -->
    <title>Shape</title>
    <desc>Created with Sketch.</desc>
    <defs></defs>
    <g id="Page-1" stroke="none" stroke-width="1" fill="none" fill-rule="evenodd">
        <g id="Desktop-Landscape" transform="translate(-1171.000000, -60.000000)" fill-rule="nonzero" fill="#000000">
            <g id="top" transform="translate(73.000000, 59.000000)">
                <g id="Group-3">
                    <g id="Group" transform="translate(1006.000000, 0.637820)">
                        <path d="M110.237512,1 C105.685335,1 102.002218,4.68311765 102.002218,9.23529412 L102.002218,13.9411353 L95.5316294,13.9411353 C95.1659647,13.9470176 94.9767589,14.2021353 94.9433941,14.4742235 L92.0022177,49.7683294 C91.9715706,50.0941529 92.2631941,50.4130941 92.590453,50.4116824 L127.884571,50.4116824 C128.211829,50.4116824 128.503453,50.0941529 128.472806,49.7683294 L125.531629,14.4742235 C125.504394,14.1850588 125.233841,13.9398824 124.943394,13.9411353 L118.472806,13.9411353 L118.472806,9.23529412 C118.472806,4.68311765 114.789688,1 110.237512,1 L110.237512,1 Z M110.237512,2.17647059 C114.158276,2.17647059 117.296335,5.31452941 117.296335,9.23529412 L117.296335,13.9411353 L103.178688,13.9411353 L103.178688,9.23529412 C103.178688,5.31452941 106.316747,2.17647059 110.237512,2.17647059 Z M96.0831,15.1176059 L102.002218,15.1176059 L102.002218,18.7021647 C100.665306,18.9776588 99.6492765,20.1729824 99.6492765,21.5881941 C99.6492765,23.2055765 100.973047,24.5293882 102.590453,24.5293882 C104.207859,24.5293882 105.531629,23.2055765 105.531629,21.5881941 C105.531629,20.1729824 104.5156,18.9776588 103.178688,18.7021647 L103.178688,15.1176059 L117.296335,15.1176059 L117.296335,18.7021647 C115.959424,18.9776588 114.943394,20.1729824 114.943394,21.5881941 C114.943394,23.2055765 116.267165,24.5293882 117.884571,24.5293882 C119.501976,24.5293882 120.825747,23.2055765 120.825747,21.5881941 C120.825747,20.1729824 119.809718,18.9776588 118.472806,18.7021647 L118.472806,15.1176059 L124.391924,15.1176059 L127.241188,49.2352118 L93.2338353,49.2352118 L96.0831,15.1176059 Z M102.590453,19.8234882 C103.572035,19.8234882 104.355159,20.6066353 104.355159,21.5881941 C104.355159,22.5697529 103.572035,23.3529 102.590453,23.3529 C101.608871,23.3529 100.825747,22.5697529 100.825747,21.5881941 C100.825747,20.6066353 101.608871,19.8234882 102.590453,19.8234882 Z M117.884571,19.8234882 C118.866153,19.8234882 119.649276,20.6066353 119.649276,21.5881941 C119.649276,22.5697529 118.866153,23.3529 117.884571,23.3529 C116.902988,23.3529 116.119865,22.5697529 116.119865,21.5881941 C116.119865,20.6066353 116.902988,19.8234882 117.884571,19.8234882 Z" id="Shape"></path>
                    </g>
                </g>
            </g>
        </g>
    </g>
</svg>