<?xml version="1.0" encoding="UTF-8"?>
<svg width="50px" height="51px" viewBox="0 0 50 51" version="1.1" xmlns="http://www.w3.org/2000/svg" xmlns:xlink="http://www.w3.org/1999/xlink">
    <!-- Generator: Sketch 43.1 (39012) - http://www.bohemiancoding.com/sketch -->
    <title>Shape</title>
    <desc>Created with Sketch.</desc>
    <defs></defs>
    <g id="Page-1" stroke="none" stroke-width="1" fill="none" fill-rule="evenodd">
        <g id="Desktop-Landscape" transform="translate(-1079.000000, -59.000000)" fill-rule="nonzero" fill="#000000">
            <g id="top" transform="translate(73.000000, 59.000000)">
                <g id="Group-3">
                    <g id="Group" transform="translate(1006.000000, 0.637820)">
                        <g id="Shape">
                            <g>
                                <path d="M41.3691033,41.0822612 C39.5066277,38.0114035 36.57846,35.1864522 33.5588694,33.5259259 C36.4307992,31.0810916 38.1766082,27.4581871 38.1766082,23.5079922 C38.1766082,16.2533138 32.2744639,10.351267 25.019883,10.351267 C17.7652047,10.351267 11.8632553,16.2533138 11.8632553,23.5079922 C11.8632553,27.4547758 13.6103314,31.0790448 16.4824561,33.5250487 C13.4365497,35.1997076 10.4838206,38.0593567 8.6236842,41.1612086 C4.31939571,36.8230019 1.94931774,31.072807 1.94931774,24.9577972 C1.94931774,18.8120857 4.34259259,13.034113 8.6883041,8.68840155 C13.0340156,4.34269006 18.8119883,1.94931774 24.9578947,1.94931774 C31.1037037,1.94931774 36.8816764,4.34269006 41.2273879,8.68840155 C45.5730994,13.034113 47.9663742,18.8120857 47.9663742,24.9577972 C47.9663742,31.0359649 45.624269,36.7533138 41.3691033,41.0822612 M10.0889863,42.5170566 C11.924269,39.2654971 15.1092592,36.260039 18.268421,34.8031189 C18.5632553,34.9789474 18.8660818,35.1437622 19.1768031,35.297271 C19.2034113,35.3105263 19.2301169,35.3238792 19.2569201,35.3369396 C19.3425926,35.3784601 19.42846,35.4197856 19.5152047,35.4596491 C19.6162768,35.5063353 19.7181286,35.551462 19.8203703,35.5955166 C19.8733918,35.6181287 19.9266082,35.6405458 19.979922,35.6625731 C20.0958089,35.7107213 20.2123781,35.757115 20.3296296,35.8018519 C20.3640351,35.8150098 20.398538,35.8281677 20.4332358,35.8410332 C20.5829434,35.8967837 20.7333333,35.9507798 20.8850877,36.0009747 C21.0452241,36.0539961 21.2091618,36.0632554 21.36423,36.0351852 C21.3885965,36.0307992 21.4124756,36.0246589 21.4363548,36.0185185 C21.4424951,36.0169591 21.4487329,36.0160819 21.4547758,36.0143275 C21.7565302,35.9297271 22.0121832,35.7015595 22.1179337,35.3816764 C22.287037,34.8705653 22.0096491,34.3192008 21.4986355,34.1502924 C21.3650097,34.1061404 21.2329434,34.0590644 21.1019493,34.0102339 C21.0639376,33.9961014 21.0262183,33.9810916 20.9884015,33.9663743 C20.9038986,33.9339182 20.8201754,33.9004874 20.7368421,33.8662768 C20.6750487,33.8405458 20.6134503,33.8145224 20.5519493,33.7877193 C20.5013645,33.765887 20.451267,33.7431774 20.4010721,33.7205653 C20.318421,33.683041 20.235575,33.6454191 20.1537037,33.6059454 C20.1513645,33.6047759 20.1489279,33.6036063 20.1464912,33.6023392 C19.7120857,33.3921053 19.2907407,33.1535088 18.8854776,32.8880117 C18.8736842,32.8803119 18.8611111,32.8743665 18.8490253,32.867154 C15.7545809,30.8306043 13.8125731,27.348733 13.8125731,23.5079922 C13.8125731,17.3281677 18.8401559,12.3005848 25.019883,12.3005848 C31.1996101,12.3005848 36.2272904,17.3281677 36.2272904,23.5079922 C36.2272904,27.3471735 34.2916179,30.823002 31.2038986,32.8597466 C31.1873294,32.8691033 31.1703703,32.8774854 31.1542885,32.8880117 C30.6599415,33.2119883 30.1413255,33.4949318 29.6043859,33.7361599 C29.5595516,33.7561404 29.5147173,33.7762183 29.4694932,33.7956141 C29.4031189,33.8243665 29.3364522,33.8524367 29.2694932,33.8799221 C29.1892787,33.9126706 29.1084795,33.9446394 29.0270955,33.9756336 C28.9860624,33.9913256 28.9451267,34.0076024 28.9038986,34.022807 C28.7726121,34.0712476 28.6402534,34.1179337 28.5063353,34.1616959 C27.9947368,34.3290449 27.7155945,34.8794347 27.8829434,35.3910332 C27.8925926,35.4207603 27.9039961,35.4494152 27.9161793,35.4774854 C27.9197856,35.4855751 27.9236842,35.4933723 27.9273879,35.5013645 C27.9365497,35.5208577 27.9460039,35.539961 27.9563353,35.558577 C27.961306,35.5676414 27.9662768,35.5766082 27.9715399,35.5854776 C27.9819688,35.602924 27.992885,35.6198831 28.0042885,35.6366472 C28.0097466,35.6446394 28.0149123,35.6527291 28.0206627,35.6605263 C28.0356725,35.681384 28.051462,35.701462 28.0680312,35.7208577 C28.0710526,35.7241716 28.0737817,35.7277778 28.0766082,35.7310916 C28.0947368,35.7516569 28.1137427,35.7712476 28.1333333,35.7900585 C28.1409356,35.7974659 28.1491228,35.8044835 28.1570175,35.8115985 C28.1704678,35.8235868 28.1840156,35.8353801 28.1978557,35.8465887 C28.2072125,35.8540936 28.2167641,35.8614035 28.2262183,35.8685185 C28.239961,35.8787525 28.2538986,35.8884991 28.2681286,35.8979532 C28.2778752,35.9044835 28.2875243,35.9111111 28.2976608,35.917349 C28.3143275,35.9275829 28.3314815,35.9371345 28.3487329,35.9463938 C28.3595516,35.9521443 28.3703703,35.9579922 28.381384,35.9633529 C28.4023392,35.9736842 28.4235867,35.9833334 28.4451267,35.9920078 C28.4568226,35.9966862 28.468616,36.0005848 28.4804093,36.0048733 C28.4952241,36.0102339 28.5101364,36.0154971 28.5253411,36.020078 C28.5381091,36.0240741 28.5510721,36.0276803 28.5641325,36.0309942 C28.5787524,36.0348928 28.5936647,36.0382067 28.608577,36.0413256 C28.6218323,36.0442495 28.6349902,36.047076 28.6482456,36.0492203 C28.6643275,36.0520468 28.6805068,36.0538012 28.6967836,36.0557505 C28.7150097,36.0578948 28.7332358,36.0596491 28.7516569,36.0607213 C28.7707602,36.0618909 28.789961,36.0630605 28.8091618,36.0630605 C28.8104288,36.0630605 28.8116959,36.0628655 28.8130604,36.0628655 C28.8268031,36.0628655 28.8406432,36.0618909 28.8544834,36.0612086 C28.8692982,36.0606238 28.884113,36.0598441 28.8990253,36.0583821 C28.9137427,36.0570176 28.92846,36.0552632 28.9432748,36.0531189 C28.9574074,36.0511696 28.9715399,36.0486355 28.9856725,36.0461014 C29.0006822,36.0433723 29.0154971,36.0406433 29.0303119,36.0371345 C29.0460039,36.0335283 29.0616959,36.0288499 29.0772904,36.0243665 C29.0890838,36.0210527 29.1009746,36.0187135 29.1126705,36.0148148 C29.2637427,35.9653996 29.4134503,35.9121833 29.5624756,35.85731 C29.6022417,35.8426901 29.6418128,35.8277778 29.681384,35.8127681 C29.788499,35.7722222 29.8949317,35.7300195 30.0009746,35.6866472 C30.0798245,35.6545809 30.1580896,35.6214425 30.2359649,35.5879143 C30.3201754,35.551462 30.4042885,35.5150098 30.4876218,35.4767057 C30.5875243,35.4312866 30.6862573,35.3840156 30.7846004,35.3362573 C30.7974659,35.3299221 30.8104288,35.3236842 30.8231969,35.317349 C31.1480507,35.1582846 31.4644249,34.9868421 31.7720273,34.8035088 C34.9080896,36.25 38.0696881,39.2220273 39.9109162,42.4461014 C35.7467836,46.0180312 30.5022417,47.9664718 24.9578947,47.9664718 C19.4505848,47.9664718 14.2394737,46.0432749 10.0889863,42.5170566 M42.6057505,7.3099415 C37.8918128,2.59610136 31.6244639,0 24.9578947,0 C18.291423,0 12.0238791,2.59610136 7.3099415,7.3099415 C2.5960039,12.0238792 0,18.2913255 0,24.9577972 C0,31.6243664 2.5960039,37.8919104 7.3099415,42.6058479 C12.0238791,47.3196881 18.291423,49.9157894 24.9578947,49.9157894 C31.6244639,49.9157894 37.8918128,47.3196881 42.6057505,42.6058479 C47.3196881,37.8919104 49.915692,31.6243664 49.915692,24.9577972 C49.915692,18.2913255 47.3196881,12.0238792 42.6057505,7.3099415"></path>
                            </g>
                        </g>
                    </g>
                </g>
            </g>
        </g>
    </g>
</svg>